<?xml version="1.0" encoding="UTF-8" standalone="no"?>
<svg width="130px" height="30px" viewBox="0 0 335 90" version="1.1" xmlns="http://www.w3.org/2000/svg" xmlns:xlink="http://www.w3.org/1999/xlink" xmlns:sketch="http://www.bohemiancoding.com/sketch/ns">
    <!-- Generator: Sketch 3.3 (11970) - http://www.bohemiancoding.com/sketch -->
    <title>SMOK</title>
    <desc>Created with Sketch.</desc>
    <defs></defs>
    <g id="Page-1" stroke="none" stroke-width="1" fill="none" fill-rule="evenodd" sketch:type="MSPage">
        <g id="smok-logo" sketch:type="MSLayerGroup" fill="#FFFFFF">
            <path d="M60.4189,53.9717 C60.3359,52.0117 59.7519,50.1577 58.6409,48.4177 C57.5289,46.6007 56.1159,45.0277 54.3809,43.6967 C50.9089,41.0887 47.1729,39.4337 43.1349,38.7287 C39.1179,37.9997 34.9799,37.4577 30.7149,37.0507 C26.5379,36.7497 22.4769,35.8837 18.5409,34.4687 C16.9459,33.8197 15.6959,33.0327 14.7469,32.0857 C13.8759,31.1557 13.4129,29.9657 13.3309,28.5517 C13.4949,26.0287 14.7469,24.2117 17.1059,23.0987 C19.4709,21.9117 22.0759,21.1617 24.9209,20.8587 C27.7699,20.5377 30.0089,20.4147 31.6669,20.4947 C36.7939,20.3327 41.2099,21.2067 44.9119,23.0987 C48.6259,24.9977 50.8549,28.2077 52.6049,33.8647 C52.6049,33.8647 52.8209,34.5057 53.1309,34.7897 C53.6089,35.2287 54.1559,35.1347 54.1559,35.1347 C54.8909,35.1187 55.4689,34.7907 55.9379,34.0827 C56.5009,33.2327 56.6219,32.4497 56.6219,31.0357 L56.6219,24.9977 C56.6219,22.3937 56.5009,20.7387 56.2799,20.0307 C56.0389,19.3247 55.6319,18.9997 55.0859,19.0837 C55.0859,19.0837 53.4929,18.4887 52.9799,18.2907 C52.5479,18.1247 51.3119,17.6697 51.3119,17.6697 C48.3839,16.7227 44.9499,16.0147 41.0149,15.5307 C36.9949,15.1437 33.2019,14.9447 29.6469,14.9447 C25.7079,14.9447 21.5699,15.4877 17.2279,16.5997 C12.8089,17.7087 9.0329,19.4677 5.8799,21.9117 C2.7099,24.4327 1.0549,27.6837 0.9169,31.6177 C1.1369,35.5587 2.8759,38.6077 6.1059,40.7257 C9.3529,42.8647 12.9679,44.3607 16.9839,45.2287 C21.1059,46.0977 24.4589,46.6007 27.0439,46.7627 L36.3889,48.1747 C39.6389,48.8257 42.3849,49.7937 44.6859,51.1487 C46.8869,52.5547 48.0609,54.6577 48.2229,57.4047 C48.0609,60.2497 46.7669,62.4107 44.3239,63.9237 C41.9629,65.4197 39.2389,66.4057 36.1669,66.8757 C33.1579,67.4197 31.0439,67.4917 28.6959,67.5807 C23.3309,67.7857 19.1249,67.1167 15.5709,65.4587 C11.9389,63.8037 9.3529,60.1267 7.7619,54.4527 C7.7619,54.4527 7.4999,53.3227 7.2809,53.0567 C7.1089,52.7597 6.7099,52.7977 6.7099,52.7977 C5.9839,52.8797 5.3179,53.4257 4.6899,54.4527 C4.0639,55.4837 3.7409,56.7397 3.7409,58.2307 L3.7409,67.4577 C3.6619,68.3257 3.8609,68.9317 4.3279,69.2337 C4.7309,69.4777 5.5169,69.5977 6.7099,69.5977 C11.3549,71.0937 15.7349,72.0427 19.8349,72.4257 C23.9329,72.8297 27.2419,72.9927 29.7679,72.9097 L30.5939,72.9097 C34.5539,72.9927 38.7939,72.3817 43.3769,71.1327 C47.9599,69.9457 51.8959,67.9857 55.2079,65.2177 C58.5209,62.3727 60.2539,58.6377 60.4189,53.9717 L60.4189,53.8697 L60.4189,53.9717 Z" id="Fill-1" sketch:type="MSShapeGroup"></path>
            <path d="M168.9922,68.7744 L166.9942,68.4104 L164.7502,67.8224 C163.7212,67.4204 162.6922,66.4894 161.6622,64.9764 C160.6342,63.5594 159.8462,62.1094 159.3022,60.6134 L147.1252,22.5164 L147.0032,22.2734 L147.0032,22.0324 C147.0862,21.0224 147.9512,20.2944 149.6082,19.9104 L154.4542,18.9614 C156.1092,18.7194 157.0192,18.3364 157.1772,17.7674 C157.2402,17.6304 157.0192,17.3864 156.4522,17.0654 C155.8242,16.7584 154.2522,16.5574 151.7292,16.4794 L141.7942,16.4794 C139.8172,16.4794 138.0392,16.6784 136.4652,17.0654 C134.8902,17.4644 133.6592,18.4564 132.8122,20.0304 L113.4092,57.2844 L93.0542,20.0304 C92.1832,18.4564 91.1172,17.4264 89.8622,16.9414 C88.6722,16.5574 87.3412,16.3584 85.8242,16.3584 L70.9262,16.3584 C69.5902,16.3584 68.6822,16.5184 68.1982,16.8434 C67.7352,17.0654 67.4922,17.3444 67.4922,17.6694 C67.5752,18.2964 68.4002,18.7194 69.9732,18.9614 C71.4712,19.2044 73.0242,19.7474 74.5972,20.6174 C76.0952,21.4864 76.9192,23.0994 77.0842,25.4604 L76.9622,27.2384 L76.5992,28.7734 L66.1992,61.4424 C65.7142,62.9324 65.0492,64.3114 64.1812,65.5824 C63.3122,66.8314 62.6562,67.3224 61.4222,67.6664 L59.6792,68.0624 L57.1972,68.6514 C55.9422,68.9704 55.0742,69.3294 55.0742,69.8404 C55.0742,70.4944 55.6722,70.9784 56.6082,71.0114 L59.4582,71.1324 L77.0842,71.1324 C78.8182,71.1324 80.0802,71.0724 80.9692,70.8374 C81.8592,70.6034 82.0492,70.3084 82.0492,70.0654 C81.8882,69.4384 81.1072,68.9444 79.6882,68.6514 C78.0082,68.3044 77.1402,68.0864 75.3072,67.4584 C73.8252,66.9504 72.7192,66.4474 72.9452,64.9764 L73.1662,64.2654 L74.3552,60.2504 L77.6682,49.8324 L84.1702,29.7254 L105.1092,68.2874 C105.8372,69.5584 106.6232,70.4294 107.4892,70.8914 C108.2792,71.4584 109.1452,71.7174 110.0962,71.7174 C111.7512,71.6384 113.1222,70.9754 114.2352,69.7204 C115.4052,68.4504 116.3972,67.0364 117.1842,65.4594 L135.8772,29.4814 L147.0032,64.0254 L147.0032,64.2654 L147.1252,64.8534 C146.9652,66.2874 146.1792,67.2374 144.7422,67.6994 L140.2642,68.7744 C138.7442,69.0144 137.9572,69.4774 137.8782,70.1854 L138.4842,70.7684 L140.1422,71.1324 L169.4762,71.1324 C169.8032,71.1324 170.0222,70.9754 170.1812,70.6704 L170.4242,70.0654 L170.0602,69.2334 L168.9922,68.7744 L168.9922,68.6514 L168.9922,68.7744 Z" id="Fill-3" sketch:type="MSShapeGroup"></path>
            <path d="M208.6299,67.458 C203.8089,67.458 199.2049,66.451 194.7789,64.389 C190.3599,62.266 186.7469,59.344 183.9029,55.626 C181.0529,51.852 179.5999,47.43 179.5189,42.383 L179.5189,41.437 L179.6389,40.484 C180.1879,36.466 181.7029,32.955 184.1449,29.966 C186.5859,26.956 189.5759,24.634 193.1269,22.979 C196.7629,21.241 200.5759,20.375 204.5979,20.375 C209.1009,20.375 213.4809,21.444 217.7369,23.583 C221.9989,25.785 225.5559,28.737 228.3849,32.45 C231.1519,36.164 232.6029,40.445 232.7649,45.346 C232.6819,49.914 231.4709,53.832 229.0849,57.062 C226.7269,60.37 223.6969,62.933 219.9779,64.753 C216.3499,66.552 212.5739,67.458 208.6299,67.458 L208.6299,67.338 L208.6299,67.458 Z M246.9569,42.383 C246.7949,36.164 244.6779,30.955 240.5769,26.776 C236.4789,22.595 231.4919,19.467 225.6569,17.426 C219.8209,15.368 214.2709,14.34 208.9779,14.34 C202.7619,14.34 196.6059,15.325 190.5229,17.306 C184.4459,19.363 179.1379,22.394 174.5529,26.412 C169.9919,30.348 166.4689,35.241 165.3259,41.313 C165.1089,42.463 164.9809,44.334 164.9839,45.346 C165.0049,51.353 167.3449,56.414 171.1199,60.613 C174.9169,64.796 179.5999,67.985 185.1959,70.186 C190.7249,72.322 196.3189,73.373 202.0159,73.373 L202.9399,73.373 C210.4219,73.377 215.7999,72.426 222.5879,70.309 C229.2919,68.187 234.9659,64.815 239.6309,60.25 C244.3529,55.666 246.7949,49.712 246.9569,42.383 L246.9569,42.383 Z" id="Fill-5" sketch:type="MSShapeGroup"></path>
            <path d="M266.4648,30.6714 L266.7058,25.4604 C266.7898,24.2124 266.9908,23.3034 267.2998,22.7574 C268.1668,21.1614 269.5178,20.1924 271.3158,19.7874 L276.0598,19.0844 C277.7498,18.8844 278.3388,18.5544 278.4228,17.7674 C278.3388,17.1464 277.9218,16.6974 276.8748,16.5884 L274.6428,16.4794 L245.3988,16.4394 L242.9388,16.5164 C242.0428,16.6314 241.6308,17.1464 241.6308,17.7674 C241.7148,18.5544 242.4598,18.9994 243.8768,19.0844 L248.7158,19.7874 C250.4578,20.1924 251.8128,21.1614 252.7598,22.7574 C252.7598,22.7574 253.2348,23.9344 253.2968,25.3064 C253.3568,26.6094 253.4648,30.6714 253.4648,30.6714 L253.4648,59.4234 C253.3038,63.5994 252.2728,66.1644 250.3738,67.1164 C248.4968,68.0624 246.5988,68.4894 244.6998,68.4104 C242.7228,68.3264 241.7148,68.8114 241.6308,69.8404 C241.6308,70.4664 242.0168,70.8524 242.8018,71.0114 L245.2878,71.1324 L274.6428,71.1324 L277.2308,71.0114 C277.9578,70.8524 278.3388,70.4664 278.4228,69.8404 C278.3388,69.0314 277.5558,68.6094 276.0598,68.5304 L271.3158,67.8224 C269.5958,67.4204 268.2398,66.4514 267.2998,64.8534 C266.9908,64.3114 266.7898,63.4034 266.7058,62.1484 L266.4648,56.9394 L266.4648,52.3134 L277.9578,42.6244 C281.4858,48.0564 285.5298,53.3854 290.0118,58.5914 C294.4298,63.8034 299.4828,68.2464 305.1558,71.9614 C310.7678,75.5964 317.1478,77.7134 324.3168,78.3404 C324.3168,78.3404 327.8438,78.4784 329.7668,78.3404 C330.5668,78.2834 332.5898,78.0424 332.5898,78.0424 C333.9998,77.8844 334.2698,77.5254 334.2698,77.0494 C334.2698,76.4814 333.4798,76.1404 332.3708,75.9824 L329.7668,75.6354 C327.1618,75.2324 324.3168,74.1604 321.2468,72.4254 C318.0938,70.7684 315.5728,69.0774 313.6748,67.3384 C309.4908,63.7234 305.4758,59.3844 301.5998,54.3324 L287.0598,35.0514 L299.7228,24.5134 C301.4598,23.0194 303.1558,21.8514 304.8088,20.9794 C306.4668,20.0304 308.1628,19.4244 309.8998,19.2044 C309.8998,19.2044 311.2058,19.0424 312.0038,18.5564 C312.4648,18.2764 313.0628,17.9164 313.0438,17.3854 C313.0278,16.9144 312.8828,16.9104 312.6248,16.7284 C312.3198,16.5134 311.1938,16.4794 311.1938,16.4794 L285.4068,16.4794 C284.9198,16.4794 284.5388,16.6384 284.2198,16.9414 L283.7488,17.6694 C283.8338,18.3724 284.6168,18.8794 286.1178,19.2044 L290.4978,20.0304 C291.9878,20.3334 292.8178,20.8584 292.9798,21.5644 L292.8568,21.9114 L279.6108,32.9124 L266.4648,43.9184 L266.4648,30.6714 L266.4648,30.5514 L266.4648,30.6714 Z" id="Fill-7" sketch:type="MSShapeGroup"></path>
            <path d="M338.3809,17.042 L332.3379,17.042 L332.3379,24.998 L332.3379,25.118 L332.2199,25.118 L329.6929,25.118 L329.5749,25.118 L329.5749,24.998 L329.5749,6.19 L329.5749,6.076 L329.6929,6.076 L338.3809,6.076 L338.3869,6.076 C339.9479,6.079 341.5109,6.351 342.6929,7.129 C343.8799,7.916 344.6759,9.207 344.6759,11.24 L344.6759,11.245 C344.6759,12.662 344.3119,13.634 343.7969,14.346 C343.3319,14.978 342.7549,15.396 342.1999,15.731 C342.6759,15.937 343.1419,16.177 343.5219,16.627 C343.9479,17.148 344.2549,17.941 344.3069,19.28 L344.4629,22.688 L344.4629,22.694 C344.4739,23.197 344.5139,23.547 344.6429,23.811 C344.7609,24.075 344.9789,24.267 345.3489,24.478 L345.4029,24.513 L345.4029,24.579 L345.4029,24.998 L345.4029,25.118 L345.2859,25.118 L342.1839,25.118 L342.0999,25.118 L342.0709,25.035 C341.9259,24.548 341.8149,23.766 341.7519,22.965 C341.7349,22.819 341.7249,22.661 341.7129,22.5 C341.6459,21.562 341.6229,20.667 341.6229,20.3 L341.6229,20.279 C341.6229,19.526 341.5509,18.708 341.1089,18.092 C340.6649,17.47 339.8539,17.042 338.3809,17.042 L338.3809,17.042 Z M338.1179,14.76 C321.6219,14.76 346.3509,14.76 338.1179,14.76 L338.1179,14.76 Z M332.2199,8.24 L338.5599,8.24 C339.2039,8.24 340.0719,8.305 340.7829,8.742 C341.4999,9.181 342.0549,10.002 342.0549,11.506 C342.0549,12.945 341.5389,13.788 340.7889,14.272 C340.0389,14.754 339.0649,14.875 338.1179,14.875 L332.2199,14.875 L332.1029,14.875 L332.1029,14.76 L332.1029,8.358 L332.1029,8.24 L332.2199,8.24 Z" id="Fill-9" sketch:type="MSShapeGroup"></path>
            <path d="M337.0049,30.0972 C328.9959,30.0972 322.5049,23.6052 322.5049,15.5972 C322.5049,7.5892 328.9959,1.0972 337.0049,1.0972 C345.0139,1.0972 351.5049,7.5892 351.5049,15.5972 C351.5049,23.6052 345.0139,30.0972 337.0049,30.0972 M337.0049,0.1452 C328.4709,0.1452 321.5529,7.0632 321.5529,15.5972 C321.5529,24.1312 328.4709,31.0492 337.0049,31.0492 C345.5389,31.0492 352.4569,24.1312 352.4569,15.5972 C352.4569,7.0632 345.5389,0.1452 337.0049,0.1452" id="Fill-11" sketch:type="MSShapeGroup"></path>
        </g>
    </g>
</svg>
